<mxfile host="app.diagrams.net" modified="2023-11-07T04:45:17.309Z" agent="Mozilla/5.0 (Windows NT 10.0; Win64; x64) AppleWebKit/537.36 (KHTML, like Gecko) Chrome/119.0.0.0 Safari/537.36 Edg/119.0.0.0" etag="HQXwC77n91SM3JF3hL8b" version="22.0.8" type="github">
  <diagram name="第 1 页" id="tlIQILoMWlmYZSHlkTmJ">
    <mxGraphModel dx="938" dy="532" grid="1" gridSize="10" guides="1" tooltips="1" connect="1" arrows="1" fold="1" page="1" pageScale="1" pageWidth="827" pageHeight="1169" math="0" shadow="0">
      <root>
        <mxCell id="0" />
        <mxCell id="1" parent="0" />
        <mxCell id="NIcPPi9_ATHaVLOJomYT-57" value="" style="group" vertex="1" connectable="0" parent="1">
          <mxGeometry x="40" y="630" width="690" height="210" as="geometry" />
        </mxCell>
        <mxCell id="NIcPPi9_ATHaVLOJomYT-47" value="" style="rounded=1;whiteSpace=wrap;html=1;fillColor=#818EAD;strokeColor=#d79b00;" vertex="1" parent="NIcPPi9_ATHaVLOJomYT-57">
          <mxGeometry width="690" height="210" as="geometry" />
        </mxCell>
        <mxCell id="NIcPPi9_ATHaVLOJomYT-37" value="I want a python program to calculate the sum of a and b" style="rounded=1;whiteSpace=wrap;html=1;fillColor=#DDEBE9;strokeColor=#6c8ebf;" vertex="1" parent="NIcPPi9_ATHaVLOJomYT-57">
          <mxGeometry x="10" y="40" width="320" height="50" as="geometry" />
        </mxCell>
        <mxCell id="NIcPPi9_ATHaVLOJomYT-38" value="我想要一个python程序来计算a和b的和" style="rounded=1;whiteSpace=wrap;html=1;fillColor=#DDEBE9;strokeColor=#6c8ebf;" vertex="1" parent="NIcPPi9_ATHaVLOJomYT-57">
          <mxGeometry x="10" y="120" width="320" height="50" as="geometry" />
        </mxCell>
        <mxCell id="NIcPPi9_ATHaVLOJomYT-39" value="代码模型" style="rounded=1;whiteSpace=wrap;html=1;fillColor=#3C8883;strokeColor=#9673a6;" vertex="1" parent="NIcPPi9_ATHaVLOJomYT-57">
          <mxGeometry x="384" y="35" width="120" height="135" as="geometry" />
        </mxCell>
        <mxCell id="NIcPPi9_ATHaVLOJomYT-40" value="def add(a, b):&lt;br&gt;&lt;span style=&quot;white-space: pre;&quot;&gt;&#x9;&lt;/span&gt;return a + b" style="rounded=1;whiteSpace=wrap;html=1;align=left;fillColor=#EEE8A9;strokeColor=#82b366;" vertex="1" parent="NIcPPi9_ATHaVLOJomYT-57">
          <mxGeometry x="530" y="40" width="110" height="50" as="geometry" />
        </mxCell>
        <mxCell id="NIcPPi9_ATHaVLOJomYT-41" value="def add(a, b):&lt;br style=&quot;border-color: var(--border-color);&quot;&gt;&lt;span style=&quot;border-color: var(--border-color);&quot;&gt;&lt;span style=&quot;white-space: pre;&quot;&gt;&amp;nbsp;&amp;nbsp;&amp;nbsp;&amp;nbsp;&lt;/span&gt;&lt;/span&gt;&lt;span style=&quot;&quot;&gt;return a * b&lt;/span&gt;" style="rounded=1;whiteSpace=wrap;html=1;align=left;fillColor=#EEE8A9;strokeColor=#82b366;" vertex="1" parent="NIcPPi9_ATHaVLOJomYT-57">
          <mxGeometry x="530" y="120" width="110" height="50" as="geometry" />
        </mxCell>
        <mxCell id="NIcPPi9_ATHaVLOJomYT-42" value="" style="endArrow=classic;html=1;rounded=0;entryX=-0.007;entryY=0.186;entryDx=0;entryDy=0;entryPerimeter=0;strokeWidth=3;" edge="1" parent="NIcPPi9_ATHaVLOJomYT-57" target="NIcPPi9_ATHaVLOJomYT-39">
          <mxGeometry width="50" height="50" relative="1" as="geometry">
            <mxPoint x="330" y="60" as="sourcePoint" />
            <mxPoint x="380" y="10" as="targetPoint" />
          </mxGeometry>
        </mxCell>
        <mxCell id="NIcPPi9_ATHaVLOJomYT-43" value="" style="endArrow=classic;html=1;rounded=0;strokeWidth=3;" edge="1" parent="NIcPPi9_ATHaVLOJomYT-57">
          <mxGeometry width="50" height="50" relative="1" as="geometry">
            <mxPoint x="330" y="140" as="sourcePoint" />
            <mxPoint x="380" y="140" as="targetPoint" />
          </mxGeometry>
        </mxCell>
        <mxCell id="NIcPPi9_ATHaVLOJomYT-45" value="" style="endArrow=classic;html=1;rounded=0;exitX=1.001;exitY=0.192;exitDx=0;exitDy=0;exitPerimeter=0;entryX=-0.007;entryY=0.412;entryDx=0;entryDy=0;entryPerimeter=0;strokeWidth=3;" edge="1" parent="NIcPPi9_ATHaVLOJomYT-57" source="NIcPPi9_ATHaVLOJomYT-39" target="NIcPPi9_ATHaVLOJomYT-40">
          <mxGeometry width="50" height="50" relative="1" as="geometry">
            <mxPoint x="510" y="60" as="sourcePoint" />
            <mxPoint x="560" y="10" as="targetPoint" />
          </mxGeometry>
        </mxCell>
        <mxCell id="NIcPPi9_ATHaVLOJomYT-46" value="" style="endArrow=classic;html=1;rounded=0;exitX=1.001;exitY=0.192;exitDx=0;exitDy=0;exitPerimeter=0;entryX=-0.007;entryY=0.412;entryDx=0;entryDy=0;entryPerimeter=0;strokeWidth=3;" edge="1" parent="NIcPPi9_ATHaVLOJomYT-57">
          <mxGeometry width="50" height="50" relative="1" as="geometry">
            <mxPoint x="503.88" y="145.21000000000004" as="sourcePoint" />
            <mxPoint x="528.88" y="145.21000000000004" as="targetPoint" />
          </mxGeometry>
        </mxCell>
        <mxCell id="NIcPPi9_ATHaVLOJomYT-48" value="" style="endArrow=none;html=1;rounded=0;fillColor=#d5e8d4;strokeColor=#82b366;strokeWidth=6;" edge="1" parent="NIcPPi9_ATHaVLOJomYT-57">
          <mxGeometry width="50" height="50" relative="1" as="geometry">
            <mxPoint x="600" y="85" as="sourcePoint" />
            <mxPoint x="650" y="80" as="targetPoint" />
            <Array as="points">
              <mxPoint x="620" y="105" />
            </Array>
          </mxGeometry>
        </mxCell>
        <mxCell id="NIcPPi9_ATHaVLOJomYT-56" value="" style="group" vertex="1" connectable="0" parent="NIcPPi9_ATHaVLOJomYT-57">
          <mxGeometry x="600" y="160" width="40" height="40" as="geometry" />
        </mxCell>
        <mxCell id="NIcPPi9_ATHaVLOJomYT-50" value="" style="endArrow=none;html=1;rounded=0;strokeWidth=6;fillColor=#f8cecc;strokeColor=#9c2121;" edge="1" parent="NIcPPi9_ATHaVLOJomYT-56">
          <mxGeometry width="50" height="50" relative="1" as="geometry">
            <mxPoint x="40" y="40" as="sourcePoint" />
            <mxPoint as="targetPoint" />
          </mxGeometry>
        </mxCell>
        <mxCell id="NIcPPi9_ATHaVLOJomYT-55" value="" style="endArrow=none;html=1;rounded=0;strokeWidth=6;fillColor=#f8cecc;strokeColor=#9c2121;" edge="1" parent="NIcPPi9_ATHaVLOJomYT-56">
          <mxGeometry width="50" height="50" relative="1" as="geometry">
            <mxPoint y="40" as="sourcePoint" />
            <mxPoint x="40" as="targetPoint" />
          </mxGeometry>
        </mxCell>
        <mxCell id="NIcPPi9_ATHaVLOJomYT-58" value="" style="group" vertex="1" connectable="0" parent="1">
          <mxGeometry x="120" y="230" width="356" height="270" as="geometry" />
        </mxCell>
        <mxCell id="mqLIqZ7rtX47lsut0Rx1-29" value="" style="rounded=1;whiteSpace=wrap;html=1;fillColor=#818EAD;strokeColor=#6c8ebf;gradientColor=none;container=0;" parent="NIcPPi9_ATHaVLOJomYT-58" vertex="1">
          <mxGeometry width="356" height="270" as="geometry" />
        </mxCell>
        <mxCell id="mqLIqZ7rtX47lsut0Rx1-3" value="多语言指令" style="rounded=0;whiteSpace=wrap;html=1;fillColor=#EEE8A9;strokeColor=#d6b656;container=0;" parent="NIcPPi9_ATHaVLOJomYT-58" vertex="1">
          <mxGeometry x="49" y="190" width="80" height="30" as="geometry" />
        </mxCell>
        <mxCell id="mqLIqZ7rtX47lsut0Rx1-27" value="" style="curved=1;endArrow=classic;html=1;rounded=0;strokeWidth=3;" parent="NIcPPi9_ATHaVLOJomYT-58" edge="1">
          <mxGeometry width="50" height="50" relative="1" as="geometry">
            <mxPoint x="163" y="51" as="sourcePoint" />
            <mxPoint x="163" y="220" as="targetPoint" />
            <Array as="points">
              <mxPoint x="163" y="31" />
              <mxPoint x="163" y="21" />
              <mxPoint x="183" y="21" />
              <mxPoint x="183" y="31" />
              <mxPoint x="183" y="81" />
              <mxPoint x="183" y="230" />
              <mxPoint x="183" y="240" />
              <mxPoint x="163" y="240" />
              <mxPoint x="163" y="230" />
            </Array>
          </mxGeometry>
        </mxCell>
        <mxCell id="mqLIqZ7rtX47lsut0Rx1-20" value="" style="endArrow=classic;html=1;rounded=0;entryX=0.17;entryY=0.985;entryDx=0;entryDy=0;entryPerimeter=0;strokeWidth=2;" parent="NIcPPi9_ATHaVLOJomYT-58" target="mqLIqZ7rtX47lsut0Rx1-2" edge="1">
          <mxGeometry width="50" height="50" relative="1" as="geometry">
            <mxPoint x="86" y="190" as="sourcePoint" />
            <mxPoint x="106" y="170" as="targetPoint" />
          </mxGeometry>
        </mxCell>
        <mxCell id="mqLIqZ7rtX47lsut0Rx1-21" value="" style="endArrow=classic;html=1;rounded=0;entryX=0.17;entryY=0.985;entryDx=0;entryDy=0;entryPerimeter=0;exitX=0.395;exitY=-0.013;exitDx=0;exitDy=0;exitPerimeter=0;strokeWidth=2;" parent="NIcPPi9_ATHaVLOJomYT-58" source="mqLIqZ7rtX47lsut0Rx1-2" edge="1">
          <mxGeometry width="50" height="50" relative="1" as="geometry">
            <mxPoint x="148.70000000000005" y="102.05000000000001" as="sourcePoint" />
            <mxPoint x="149.70000000000005" y="81.05000000000001" as="targetPoint" />
          </mxGeometry>
        </mxCell>
        <mxCell id="mqLIqZ7rtX47lsut0Rx1-11" value="英语指令" style="rounded=0;whiteSpace=wrap;html=1;fillColor=#ffe6cc;strokeColor=#d79b00;container=0;" parent="NIcPPi9_ATHaVLOJomYT-58" vertex="1">
          <mxGeometry x="133" y="190" width="80" height="30" as="geometry" />
        </mxCell>
        <mxCell id="mqLIqZ7rtX47lsut0Rx1-9" value="英语指令" style="rounded=0;whiteSpace=wrap;html=1;fillColor=#ffe6cc;strokeColor=#d79b00;container=0;" parent="NIcPPi9_ATHaVLOJomYT-58" vertex="1">
          <mxGeometry x="109" y="51" width="80" height="30" as="geometry" />
        </mxCell>
        <mxCell id="mqLIqZ7rtX47lsut0Rx1-28" value="" style="curved=1;endArrow=classic;html=1;rounded=0;strokeWidth=3;" parent="NIcPPi9_ATHaVLOJomYT-58" edge="1">
          <mxGeometry width="50" height="50" relative="1" as="geometry">
            <mxPoint x="232.5" y="51" as="sourcePoint" />
            <mxPoint x="232.5" y="220" as="targetPoint" />
            <Array as="points">
              <mxPoint x="232.5" y="31" />
              <mxPoint x="232.5" y="21" />
              <mxPoint x="252.5" y="21" />
              <mxPoint x="252.5" y="31" />
              <mxPoint x="252.5" y="81" />
              <mxPoint x="252.5" y="230" />
              <mxPoint x="252.5" y="240" />
              <mxPoint x="232.5" y="240" />
              <mxPoint x="232.5" y="230" />
            </Array>
          </mxGeometry>
        </mxCell>
        <mxCell id="mqLIqZ7rtX47lsut0Rx1-12" value="代码" style="rounded=0;whiteSpace=wrap;html=1;fillColor=#DDEBE9;strokeColor=#82b366;container=0;" parent="NIcPPi9_ATHaVLOJomYT-58" vertex="1">
          <mxGeometry x="192" y="51" width="77" height="30" as="geometry" />
        </mxCell>
        <mxCell id="mqLIqZ7rtX47lsut0Rx1-2" value="transformers" style="rounded=1;whiteSpace=wrap;html=1;fillColor=#3C8883;strokeColor=#9673a6;container=0;" parent="NIcPPi9_ATHaVLOJomYT-58" vertex="1">
          <mxGeometry x="39" y="100" width="280" height="70" as="geometry" />
        </mxCell>
        <mxCell id="mqLIqZ7rtX47lsut0Rx1-15" value="代码" style="rounded=0;whiteSpace=wrap;html=1;fillColor=#DDEBE9;strokeColor=#82b366;container=0;" parent="NIcPPi9_ATHaVLOJomYT-58" vertex="1">
          <mxGeometry x="216" y="190" width="53" height="30" as="geometry" />
        </mxCell>
        <mxCell id="NIcPPi9_ATHaVLOJomYT-1" value="" style="endArrow=classic;html=1;rounded=0;entryX=0.17;entryY=0.985;entryDx=0;entryDy=0;entryPerimeter=0;exitX=0.395;exitY=-0.013;exitDx=0;exitDy=0;exitPerimeter=0;strokeWidth=2;" edge="1" parent="NIcPPi9_ATHaVLOJomYT-58">
          <mxGeometry width="50" height="50" relative="1" as="geometry">
            <mxPoint x="216.39999999999998" y="99.90999999999997" as="sourcePoint" />
            <mxPoint x="216.10000000000002" y="81.96000000000004" as="targetPoint" />
          </mxGeometry>
        </mxCell>
        <mxCell id="NIcPPi9_ATHaVLOJomYT-2" value="" style="endArrow=classic;html=1;rounded=0;entryX=0.17;entryY=0.985;entryDx=0;entryDy=0;entryPerimeter=0;exitX=0.395;exitY=-0.013;exitDx=0;exitDy=0;exitPerimeter=0;strokeWidth=2;" edge="1" parent="NIcPPi9_ATHaVLOJomYT-58">
          <mxGeometry width="50" height="50" relative="1" as="geometry">
            <mxPoint x="149.05999999999995" y="190" as="sourcePoint" />
            <mxPoint x="148.76" y="172.05" as="targetPoint" />
          </mxGeometry>
        </mxCell>
        <mxCell id="NIcPPi9_ATHaVLOJomYT-3" value="" style="endArrow=classic;html=1;rounded=0;entryX=0.17;entryY=0.985;entryDx=0;entryDy=0;entryPerimeter=0;exitX=0.395;exitY=-0.013;exitDx=0;exitDy=0;exitPerimeter=0;strokeWidth=2;" edge="1" parent="NIcPPi9_ATHaVLOJomYT-58">
          <mxGeometry width="50" height="50" relative="1" as="geometry">
            <mxPoint x="230.55999999999995" y="187.95" as="sourcePoint" />
            <mxPoint x="230.26" y="170" as="targetPoint" />
          </mxGeometry>
        </mxCell>
      </root>
    </mxGraphModel>
  </diagram>
</mxfile>
